<svg xmlns="http://www.w3.org/2000/svg" width="105" height="41" viewBox="0 0 105 41" version="1.1"><g stroke="none" stroke-width="1" fill="none" fill-rule="evenodd"><g fill="#000000"><path d="M10.7 0.4L10.9 11.3 10.8 11.4 4 0.4 0.1 0.4 0.1 17.8 4.4 17.8 4.3 7.3 4.4 7.2 11.1 17.8 15 17.8 15 0.4 10.7 0.4M26.1 9.8C25.9 9.1 25.1 7.6 23.1 7.6 21 7.6 20.3 9.1 20.1 9.8L26.1 9.8 26.1 9.8ZM29.6 13.7C29 15.2 28 16.3 26.9 17.1 25.8 17.8 24.5 18.2 23.1 18.2 19.4 18.2 16.1 15.2 16.1 11.3 16.1 7.7 19 4.3 23.1 4.3 27.1 4.3 30 7.5 30 11.4 30 12 30 12.2 30 12.5L20 12.5C20.3 14 21.6 14.9 23.1 14.9 24.4 14.9 25 14.4 25.5 13.7L29.6 13.7 29.6 13.7ZM37.7 4.8L37.7 7.7 35.8 7.7 35.8 18 31.8 18 31.8 7.7 29.9 7.7 29.9 4.8 31.8 4.8 31.8 0 35.8 0 35.8 4.8 37.7 4.8ZM39 0L43 0 43 17.9 39 17.9 39 0ZM44.8 4.8L48.8 4.8 48.8 18 44.8 18 44.8 4.8ZM44.8 0.4L48.8 0.4 48.8 3.4 44.8 3.4 44.8 0.4ZM50.1 7.7L50.1 4.8 51.6 4.8 51.6 4.1C51.6 0.4 54.7 0.1 56.7 0.1L57.2 0.1 57.2 3 56.8 3C56.4 3 55.6 3.2 55.6 4.3L55.6 4.8 57.2 4.8 57.2 7.7 55.6 7.7 55.6 18 51.6 18 51.6 7.7 50.1 7.7ZM67 9.8C66.8 9.1 66 7.6 64 7.6 61.9 7.6 61.2 9.1 61 9.8L67 9.8 67 9.8ZM70.5 13.7C69.8 15.2 68.9 16.3 67.8 17.1 66.7 17.8 65.4 18.2 64 18.2 60.2 18.2 57 15.2 57 11.3 57 7.7 59.9 4.3 64 4.3 68 4.3 70.9 7.5 70.9 11.4 70.9 12 70.9 12.2 70.9 12.5L60.9 12.5C61.2 14 62.5 14.9 64 14.9 65.3 14.9 65.9 14.4 66.4 13.7L70.5 13.7 70.5 13.7ZM4.4 31.8L6 31.8C8.7 31.8 9 30.2 9 29.3 9 27.7 7.8 27 6.1 27L4.4 27 4.4 31.8 4.4 31.8ZM0.1 23.1L5.7 23.1C8.8 23.1 10 23.4 11.1 24.3 12.6 25.4 13.3 27.3 13.3 29.1 13.3 31.1 12.3 34 8.9 34.5L13.7 40.5 8.6 40.5 4.5 34.8 4.4 34.8 4.4 40.5 0.1 40.5 0.1 23.1 0.1 23.1ZM23.6 32.5C23.4 31.7 22.6 30.3 20.6 30.3 18.5 30.3 17.7 31.7 17.6 32.5L23.6 32.5 23.6 32.5ZM27.1 36.4C26.4 37.8 25.5 39 24.4 39.7 23.3 40.5 22 40.9 20.6 40.9 16.8 40.9 13.6 37.8 13.6 34 13.6 30.3 16.5 27 20.5 27 24.6 27 27.5 30.1 27.5 34.1 27.5 34.6 27.5 34.8 27.4 35.1L17.5 35.1C17.8 36.7 19.1 37.6 20.6 37.6 21.8 37.6 22.5 37 23 36.4L27.1 36.4 27.1 36.4ZM34.1 31.1C34.1 30.8 34.1 30.1 32.9 30.1 32.1 30.1 31.8 30.6 31.8 31 31.8 31.7 32.8 32.1 33.8 32.4 36.1 33 38.4 33.6 38.4 36.5 38.4 39.2 36 40.9 33.1 40.9 31 40.9 28 40 27.7 36.6L31.6 36.6C31.8 37.8 32.9 37.8 33.1 37.8 33.8 37.8 34.5 37.4 34.5 36.8 34.5 35.8 33.5 35.6 31 34.7 29.3 34.1 27.8 33 27.8 31.3 27.8 28.7 30.2 27 33 27 34.7 27 37.7 27.7 38 31.1L34.1 31.1M48.5 32.5C48.3 31.7 47.5 30.3 45.5 30.3 43.4 30.3 42.6 31.7 42.5 32.5L48.5 32.5 48.5 32.5ZM52 36.4C51.3 37.8 50.4 39 49.3 39.7 48.2 40.5 46.9 40.9 45.5 40.9 41.7 40.9 38.5 37.8 38.5 34 38.5 30.3 41.4 27 45.4 27 49.5 27 52.4 30.1 52.4 34.1 52.4 34.6 52.4 34.8 52.3 35.1L42.4 35.1C42.6 36.7 44 37.6 45.5 37.6 46.7 37.6 47.4 37 47.9 36.4L52 36.4 52 36.4ZM60 37.3C62.5 37.3 63.3 35.2 63.3 33.9 63.3 32.4 62.3 30.6 60 30.6 57.7 30.6 56.8 32.5 56.8 34 56.8 35.2 57.7 37.3 60 37.3M67.3 40.5L63.3 40.5 63.3 39 63.3 39C62.6 40.3 61 40.9 59.4 40.9 55.2 40.9 52.8 37.7 52.8 33.9 52.8 29.7 55.9 27 59.4 27 61.6 27 62.8 28 63.3 28.8L63.3 28.8 63.3 27.4 67.3 27.4 67.3 40.5M69 27.4L72.7 27.4 72.7 28.8 72.7 28.8C73.1 28.2 73.8 27 76 27L76 30.9C74.2 30.9 72.9 31.3 72.9 33.3L72.9 40.5 69 40.5 69 27.4M89.6 35.5C88.9 38.5 86.3 40.9 82.7 40.9 78.7 40.9 75.6 37.8 75.6 33.9 75.6 30.1 78.7 27 82.6 27 86.1 27 89 29.3 89.6 32.4L85.6 32.4C85.2 31.6 84.4 30.6 82.8 30.6 80.9 30.5 79.6 32 79.6 33.9 79.6 35.8 80.9 37.2 82.8 37.2 84.4 37.2 85.2 36.3 85.6 35.5L89.6 35.5M90.6 23.1L94.6 23.1 94.6 28.6 94.6 28.6C95.3 27.4 96.6 27 98 27 99.3 27 100.8 27.4 101.6 28.4 102.7 29.7 102.9 30.8 102.9 33.2L102.9 40.5 98.9 40.5 98.9 33.4C98.9 32.7 98.9 30.6 96.8 30.6 94.6 30.6 94.6 32.6 94.6 33.2L94.6 40.5 90.6 40.5 90.6 23.1"></path></g></g></svg>